<svg width="546" height="364" viewBox="0 0 546 364" fill="none" xmlns="http://www.w3.org/2000/svg">
<g>
<g>
<path d="M311.434 225.109C332.741 203.802 332.741 169.258 311.434 147.951C290.127 126.644 255.583 126.644 234.276 147.951C212.97 169.258 212.97 203.802 234.276 225.109C255.583 246.415 290.127 246.415 311.434 225.109Z" fill="#C77DFF"/>
<path d="M287.484 173.568C286.656 168.447 288.792 163.845 292.257 163.284C295.722 162.722 299.207 166.413 300.035 171.535C300.864 176.656 298.727 181.258 295.263 181.819C291.798 182.381 288.313 178.69 287.484 173.568Z" fill="#383838"/>
<path opacity="0.12" d="M296.195 170.658C297.411 168.948 297.011 166.575 295.3 165.359C293.589 164.143 291.217 164.544 290.001 166.254C288.785 167.965 289.186 170.337 290.896 171.554C292.607 172.77 294.979 172.369 296.195 170.658Z" fill="white"/>
<path d="M263.006 177.54C262.177 172.418 258.692 168.727 255.227 169.289C251.762 169.85 249.626 174.458 250.455 179.573C251.283 184.695 254.768 188.386 258.233 187.824C261.698 187.263 263.834 182.655 263.006 177.54Z" fill="#383838"/>
<path opacity="0.12" d="M259.182 176.657C260.399 174.948 260 172.575 258.291 171.358C256.581 170.14 254.208 170.54 252.991 172.249C251.773 173.959 252.173 176.332 253.882 177.549C255.592 178.766 257.965 178.367 259.182 176.657Z" fill="white"/>
<path d="M267.08 197.712C267.08 197.712 275.447 190.289 282.78 189.098C290.114 187.906 292.64 193.562 292.64 193.562" stroke="#383838" stroke-width="2.79" stroke-linecap="round" stroke-linejoin="round"/>
<path d="M281.945 151.424C281.945 151.424 288.71 148.453 298.584 153.081" stroke="#383838" stroke-width="2.79" stroke-linecap="round" stroke-linejoin="round"/>
<path d="M262.56 164.722C262.56 164.722 255.384 162.948 246.449 169.193" stroke="#383838" stroke-width="2.79" stroke-linecap="round" stroke-linejoin="round"/>
<g opacity="0.5">
<path d="M324.165 168.002C326.644 195.829 307.239 221.246 279.227 225.792C251.214 230.339 224.77 212.351 218.327 185.174C218.245 188.495 218.457 191.871 219.005 195.274C223.832 225.019 251.851 245.218 281.596 240.391C311.34 235.563 331.539 207.544 326.712 177.8C326.158 174.397 325.295 171.131 324.165 168.002Z" fill="#C77DFF" fill-opacity="0.8"/>
<path d="M324.165 168.002C326.644 195.829 307.239 221.246 279.227 225.792C251.214 230.339 224.77 212.351 218.327 185.174C218.245 188.495 218.457 191.871 219.005 195.274C223.832 225.019 251.851 245.218 281.596 240.391C311.34 235.563 331.539 207.544 326.712 177.8C326.158 174.397 325.295 171.131 324.165 168.002Z" fill="#392A44"/>
</g>
<path d="M313.449 213.748C312.826 212.495 307.04 201.265 306.424 200.095C305.013 197.417 301.699 196.383 299.022 197.794C296.345 199.198 295.311 202.519 296.721 205.196C296.899 205.531 298.399 208.551 299.987 211.755L289.278 211.283L265.094 209.195C262.293 208.955 259.616 210.756 259.041 213.508C258.39 216.644 260.506 219.527 263.519 220.027L285.067 221.93V222.074C282.143 222.026 279.672 224.265 279.494 227.203C279.329 229.887 281.13 232.208 283.65 232.831C283.732 232.852 283.725 232.955 283.65 232.968C281.185 233.372 279.233 235.42 279.069 238.021C278.898 240.856 280.918 243.301 283.657 243.746C283.691 243.746 283.691 243.794 283.657 243.794C280.945 243.972 278.713 246.122 278.542 248.902C278.364 251.832 280.527 254.345 283.41 254.667L283.527 254.688C283.581 254.688 283.629 254.708 283.684 254.715V254.701L288.196 255.092V255.112C288.196 255.112 290.456 255.475 293.818 255.578L294.831 255.667C295.29 255.708 295.728 255.667 296.167 255.605C306.006 255.496 321.625 252.675 323.056 236.097C324.144 223.485 319.481 217 313.463 213.755L313.449 213.748Z" fill="#C77DFF" stroke="white" stroke-opacity="0.8" stroke-width="0.75" stroke-miterlimit="10"/>
</g>
<path d="M319.649 130.209L312.884 129.744L313.699 117.898L317.335 118.446C321.779 119.117 325.147 118.254 326.579 116.063C327.585 114.522 327.51 112.448 326.373 110.647C324.483 107.648 320.313 106.264 315.212 106.949L314.308 100.232C322.107 99.1844 328.763 101.725 332.111 107.031C334.679 111.105 334.734 115.988 332.255 119.774C329.831 123.485 325.456 125.471 319.978 125.444L319.649 130.202V130.209Z" fill="#B371E6"/>
<path d="M320.812 135.262L311.474 134.623L311 141.536L320.338 142.176L320.812 135.262Z" fill="#B371E6"/>
<path d="M106.423 217.404C104.327 217.404 102.732 216.857 101.636 215.768C100.541 214.672 100 213.084 100 210.982V176.656C100 174.561 100.548 172.966 101.636 171.87C102.725 170.775 104.321 170.234 106.423 170.234H129.169C130.682 170.234 131.853 170.638 132.682 171.439C133.51 172.24 133.921 173.404 133.921 174.917C133.921 176.43 133.51 177.67 132.682 178.498C131.853 179.327 130.682 179.738 129.169 179.738H111.709V188.701H127.635C129.197 188.701 130.381 189.105 131.182 189.906C131.983 190.707 132.387 191.891 132.387 193.453C132.387 195.014 131.983 196.144 131.182 196.965C130.381 197.794 129.197 198.205 127.635 198.205H111.709V207.907H129.169C130.682 207.907 131.853 208.318 132.682 209.147C133.51 209.975 133.921 211.146 133.921 212.659C133.921 214.172 133.51 215.405 132.682 216.206C131.853 217.007 130.682 217.411 129.169 217.411H106.423V217.404Z" fill="#C77DFF"/>
<path d="M153.258 222.752C150.923 222.752 149.129 222.095 147.876 220.78C146.623 219.465 145.993 217.644 145.993 215.309V166.714C145.993 164.379 146.664 162.558 148.006 161.243C149.348 159.928 151.217 159.271 153.607 159.271C155.709 159.271 157.359 159.682 158.551 160.497C159.749 161.312 160.838 162.654 161.831 164.523L180.571 198.321H177.593L196.327 164.523C197.381 162.654 198.504 161.312 199.696 160.497C200.894 159.682 202.483 159.271 204.468 159.271C206.858 159.271 208.686 159.928 209.939 161.243C211.192 162.558 211.822 164.379 211.822 166.714V215.309C211.822 217.644 211.206 219.465 209.98 220.78C208.755 222.095 206.947 222.752 204.551 222.752C202.154 222.752 200.422 222.095 199.169 220.78C197.916 219.465 197.286 217.644 197.286 215.309V185.188H199.128L184.947 209.701C184.187 210.988 183.358 211.947 182.454 212.591C181.551 213.234 180.339 213.556 178.819 213.556C177.299 213.556 176.148 213.234 175.183 212.591C174.217 211.947 173.354 210.988 172.601 209.701L158.421 185.099H160.523V215.309C160.523 217.644 159.907 219.465 158.681 220.78C157.455 222.095 155.648 222.752 153.251 222.752H153.258Z" fill="#C77DFF"/>
<path d="M347.329 222.636C344.645 222.636 342.584 221.889 341.153 220.397C339.722 218.904 339.003 216.85 339.003 214.22V167.056C339.003 164.311 339.736 162.222 341.194 160.791C342.653 159.36 344.727 158.641 347.411 158.641H369.425C376.526 158.641 382.01 160.387 385.893 163.879C389.768 167.371 391.713 172.219 391.713 178.423C391.713 182.483 390.85 185.969 389.118 188.892C387.386 191.816 384.852 194.069 381.511 195.651C378.169 197.232 374.143 198.02 369.432 198.02L370.062 196.411H374.444C376.95 196.411 379.189 197.02 381.155 198.246C383.127 199.471 384.763 201.334 386.078 203.84L390.46 211.892C391.473 213.679 391.939 215.384 391.85 216.993C391.761 218.603 391.131 219.945 389.974 221.02C388.81 222.095 387.002 222.629 384.558 222.629C382.291 222.629 380.429 222.149 378.963 221.198C377.498 220.246 376.204 218.753 375.067 216.726L366.926 201.601C366.207 200.348 365.296 199.471 364.194 198.958C363.092 198.451 361.825 198.198 360.394 198.198H355.471V214.22C355.471 216.843 354.772 218.904 353.368 220.397C351.965 221.889 349.952 222.636 347.329 222.636ZM355.471 186.571H366.385C369.548 186.571 371.952 185.941 373.588 184.695C375.225 183.449 376.053 181.532 376.053 178.971C376.053 176.41 375.232 174.404 373.588 173.151C371.945 171.897 369.548 171.274 366.385 171.274H355.471V186.578V186.571Z" fill="#C77DFF"/>
<path d="M405.812 214.309C404.531 214.309 403.463 214.001 402.594 213.385C401.724 212.769 401.19 211.933 400.984 210.879C400.779 209.824 400.964 208.64 401.539 207.318L416.945 174.15C417.685 172.541 418.596 171.357 419.671 170.59C420.746 169.83 421.999 169.446 423.443 169.446C424.888 169.446 426.073 169.83 427.127 170.59C428.182 171.357 429.079 172.541 429.818 174.15L445.286 207.318C445.902 208.64 446.121 209.838 445.937 210.906C445.752 211.981 445.245 212.817 444.423 213.412C443.595 214.008 442.547 214.309 441.267 214.309C439.699 214.309 438.459 213.919 437.556 213.132C436.645 212.351 435.844 211.132 435.145 209.482L431.804 201.683L436.2 204.901H410.639L414.973 201.683L411.632 209.482C410.927 211.173 410.187 212.399 409.407 213.166C408.619 213.926 407.428 214.309 405.819 214.309H405.812ZM423.327 181.943L416.151 199.081L414.419 196.109H432.427L430.633 199.081L423.457 181.943H423.334H423.327Z" fill="#C77DFF"/>
</g>
<path d="M113.399 305V299.868L108.609 291.26H111.723L114.76 297.059H114.913L117.94 291.26H121.054L116.274 299.868V305H113.399ZM125.739 305.219C124.672 305.219 123.752 305.003 122.977 304.572C122.209 304.134 121.619 303.511 121.206 302.705C120.794 301.893 120.587 300.918 120.587 299.782V299.763C120.587 298.646 120.797 297.681 121.216 296.869C121.635 296.056 122.228 295.431 122.996 294.993C123.764 294.555 124.678 294.336 125.739 294.336C126.799 294.336 127.713 294.555 128.481 294.993C129.249 295.431 129.842 296.056 130.261 296.869C130.68 297.675 130.89 298.64 130.89 299.763V299.782C130.89 300.918 130.683 301.893 130.271 302.705C129.858 303.511 129.265 304.134 128.49 304.572C127.722 305.003 126.805 305.219 125.739 305.219ZM125.739 303.039C126.227 303.039 126.643 302.912 126.986 302.658C127.329 302.397 127.589 302.026 127.767 301.544C127.951 301.055 128.043 300.471 128.043 299.792V299.773C128.043 299.087 127.951 298.503 127.767 298.021C127.583 297.538 127.319 297.167 126.976 296.907C126.634 296.646 126.221 296.516 125.739 296.516C125.256 296.516 124.84 296.646 124.491 296.907C124.148 297.167 123.885 297.538 123.701 298.021C123.517 298.503 123.425 299.087 123.425 299.773V299.792C123.425 300.477 123.517 301.061 123.701 301.544C123.885 302.026 124.148 302.397 124.491 302.658C124.834 302.912 125.25 303.039 125.739 303.039ZM136.479 305.219C135.704 305.219 135.054 305.067 134.527 304.762C134 304.457 133.6 304.013 133.327 303.429C133.061 302.839 132.927 302.131 132.927 301.306V294.564H135.708V300.687C135.708 301.417 135.857 301.972 136.155 302.353C136.453 302.728 136.929 302.915 137.583 302.915C137.92 302.915 138.218 302.861 138.478 302.753C138.745 302.639 138.967 302.48 139.145 302.277C139.323 302.074 139.456 301.829 139.545 301.544C139.64 301.258 139.688 300.941 139.688 300.592V294.564H142.468V305H139.688V303.372H139.535C139.376 303.753 139.151 304.083 138.859 304.362C138.573 304.641 138.231 304.854 137.831 305C137.431 305.146 136.98 305.219 136.479 305.219ZM145.096 305V294.564H147.876V296.221H148.028C148.193 295.637 148.498 295.187 148.942 294.869C149.393 294.552 149.952 294.393 150.618 294.393C150.802 294.393 150.98 294.406 151.151 294.431C151.329 294.45 151.485 294.479 151.618 294.517V296.945C151.421 296.894 151.218 296.856 151.009 296.831C150.805 296.805 150.596 296.792 150.38 296.792C149.866 296.792 149.422 296.888 149.047 297.078C148.673 297.262 148.384 297.532 148.181 297.887C147.978 298.243 147.876 298.668 147.876 299.163V305H145.096ZM158.464 305V291.26H163.844C165.208 291.26 166.37 291.527 167.328 292.06C168.293 292.587 169.03 293.355 169.537 294.365C170.052 295.374 170.309 296.596 170.309 298.03V298.049C170.309 299.528 170.055 300.785 169.547 301.82C169.039 302.854 168.303 303.645 167.338 304.191C166.379 304.73 165.215 305 163.844 305H158.464ZM161.339 302.629H163.406C164.256 302.629 164.977 302.458 165.567 302.115C166.157 301.766 166.605 301.255 166.909 300.582C167.22 299.903 167.376 299.074 167.376 298.097V298.078C167.376 297.132 167.217 296.329 166.9 295.669C166.589 295.002 166.135 294.498 165.538 294.155C164.948 293.806 164.237 293.631 163.406 293.631H161.339V302.629ZM175.422 305.162C174.755 305.162 174.162 305.035 173.641 304.781C173.127 304.521 172.724 304.156 172.432 303.686C172.146 303.21 172.003 302.658 172.003 302.029V302.01C172.003 301.382 172.159 300.845 172.47 300.401C172.781 299.95 173.238 299.598 173.841 299.344C174.45 299.084 175.187 298.928 176.05 298.878L179.963 298.64V300.344L176.469 300.563C175.885 300.601 175.447 300.731 175.155 300.953C174.863 301.169 174.717 301.468 174.717 301.848V301.867C174.717 302.261 174.866 302.572 175.165 302.801C175.469 303.023 175.863 303.134 176.345 303.134C176.771 303.134 177.151 303.048 177.488 302.877C177.824 302.705 178.088 302.477 178.278 302.191C178.475 301.899 178.573 301.569 178.573 301.201V297.897C178.573 297.44 178.424 297.088 178.126 296.84C177.834 296.593 177.402 296.469 176.831 296.469C176.329 296.469 175.92 296.558 175.603 296.735C175.292 296.913 175.085 297.157 174.984 297.469L174.965 297.516H172.403L172.413 297.421C172.483 296.805 172.711 296.269 173.098 295.812C173.486 295.348 174.009 294.987 174.669 294.726C175.33 294.466 176.098 294.336 176.974 294.336C177.894 294.336 178.678 294.479 179.325 294.764C179.973 295.044 180.468 295.447 180.811 295.974C181.154 296.5 181.325 297.132 181.325 297.868V305H178.573V303.591H178.421C178.243 303.915 178.005 304.197 177.707 304.438C177.415 304.673 177.075 304.854 176.688 304.981C176.301 305.102 175.879 305.162 175.422 305.162ZM183.924 305V294.564H186.705V305H183.924ZM185.324 293.003C184.899 293.003 184.534 292.854 184.229 292.555C183.924 292.257 183.772 291.898 183.772 291.479C183.772 291.048 183.924 290.686 184.229 290.394C184.534 290.096 184.899 289.947 185.324 289.947C185.749 289.947 186.114 290.096 186.419 290.394C186.724 290.686 186.876 291.048 186.876 291.479C186.876 291.898 186.724 292.257 186.419 292.555C186.114 292.854 185.749 293.003 185.324 293.003ZM189.437 305V290.632H192.218V305H189.437ZM196.236 308.637C196.052 308.637 195.867 308.634 195.683 308.628C195.499 308.621 195.325 308.612 195.16 308.599V306.514C195.261 306.52 195.379 306.527 195.512 306.533C195.645 306.539 195.782 306.542 195.921 306.542C196.404 306.542 196.785 306.45 197.064 306.266C197.35 306.082 197.543 305.79 197.645 305.39L197.74 305L194.074 294.564H197.121L199.597 303.524L199.006 302.515H199.787L199.216 303.524L201.682 294.564H204.615L201.063 305.019C200.758 305.927 200.39 306.644 199.958 307.171C199.533 307.698 199.016 308.072 198.406 308.294C197.803 308.523 197.08 308.637 196.236 308.637ZM216.431 305.333C215.333 305.333 214.38 305.171 213.574 304.848C212.768 304.518 212.133 304.054 211.67 303.458C211.213 302.854 210.956 302.144 210.899 301.325L210.889 301.172H213.66L213.669 301.268C213.708 301.61 213.85 301.912 214.098 302.172C214.345 302.432 214.676 302.635 215.088 302.781C215.501 302.927 215.97 303 216.497 303C217.018 303 217.472 302.924 217.859 302.772C218.246 302.62 218.548 302.41 218.763 302.144C218.979 301.871 219.087 301.56 219.087 301.21V301.201C219.087 300.75 218.903 300.388 218.535 300.115C218.173 299.843 217.567 299.62 216.716 299.449L215.26 299.154C213.85 298.862 212.816 298.386 212.156 297.726C211.502 297.059 211.175 296.205 211.175 295.164V295.155C211.181 294.304 211.406 293.565 211.851 292.936C212.302 292.302 212.92 291.81 213.708 291.46C214.495 291.105 215.396 290.927 216.412 290.927C217.484 290.927 218.402 291.099 219.163 291.441C219.931 291.784 220.531 292.257 220.963 292.86C221.395 293.463 221.639 294.152 221.696 294.926L221.706 295.05H218.992L218.973 294.936C218.922 294.599 218.786 294.307 218.563 294.06C218.341 293.812 218.046 293.619 217.678 293.479C217.316 293.333 216.894 293.26 216.412 293.26C215.942 293.26 215.529 293.33 215.174 293.469C214.818 293.609 214.542 293.806 214.345 294.06C214.149 294.307 214.05 294.603 214.05 294.945V294.955C214.05 295.399 214.231 295.761 214.593 296.04C214.955 296.313 215.539 296.532 216.345 296.697L217.792 297.002C218.763 297.199 219.554 297.465 220.163 297.802C220.779 298.138 221.233 298.56 221.525 299.068C221.817 299.576 221.963 300.185 221.963 300.896V300.906C221.963 301.813 221.74 302.597 221.296 303.258C220.852 303.918 220.214 304.429 219.382 304.791C218.557 305.152 217.573 305.333 216.431 305.333ZM224.257 308.456V294.564H227.038V296.212H227.19C227.368 295.831 227.606 295.504 227.904 295.231C228.209 294.958 228.564 294.752 228.97 294.612C229.383 294.466 229.834 294.393 230.323 294.393C231.198 294.393 231.951 294.609 232.579 295.041C233.214 295.472 233.703 296.091 234.045 296.897C234.388 297.697 234.56 298.656 234.56 299.773V299.792C234.56 300.909 234.388 301.871 234.045 302.677C233.709 303.483 233.223 304.102 232.589 304.533C231.96 304.959 231.208 305.171 230.332 305.171C229.85 305.171 229.402 305.098 228.99 304.952C228.583 304.8 228.225 304.587 227.914 304.314C227.609 304.035 227.368 303.702 227.19 303.315H227.038V308.456H224.257ZM229.38 302.867C229.869 302.867 230.288 302.743 230.637 302.496C230.986 302.248 231.256 301.896 231.446 301.439C231.636 300.976 231.732 300.427 231.732 299.792V299.773C231.732 299.132 231.636 298.583 231.446 298.125C231.256 297.662 230.986 297.31 230.637 297.069C230.288 296.821 229.869 296.697 229.38 296.697C228.897 296.697 228.479 296.821 228.123 297.069C227.768 297.31 227.491 297.662 227.295 298.125C227.104 298.583 227.009 299.132 227.009 299.773V299.782C227.009 300.417 227.104 300.966 227.295 301.429C227.491 301.893 227.768 302.248 228.123 302.496C228.479 302.743 228.897 302.867 229.38 302.867ZM239.596 305.162C238.93 305.162 238.336 305.035 237.816 304.781C237.302 304.521 236.899 304.156 236.607 303.686C236.321 303.21 236.178 302.658 236.178 302.029V302.01C236.178 301.382 236.334 300.845 236.645 300.401C236.956 299.95 237.413 299.598 238.016 299.344C238.625 299.084 239.362 298.928 240.225 298.878L244.138 298.64V300.344L240.644 300.563C240.06 300.601 239.622 300.731 239.33 300.953C239.038 301.169 238.892 301.468 238.892 301.848V301.867C238.892 302.261 239.041 302.572 239.339 302.801C239.644 303.023 240.038 303.134 240.52 303.134C240.945 303.134 241.326 303.048 241.663 302.877C241.999 302.705 242.262 302.477 242.453 302.191C242.65 301.899 242.748 301.569 242.748 301.201V297.897C242.748 297.44 242.599 297.088 242.301 296.84C242.009 296.593 241.577 296.469 241.006 296.469C240.504 296.469 240.095 296.558 239.777 296.735C239.466 296.913 239.26 297.157 239.158 297.469L239.139 297.516H236.578L236.588 297.421C236.657 296.805 236.886 296.269 237.273 295.812C237.66 295.348 238.184 294.987 238.844 294.726C239.504 294.466 240.272 294.336 241.148 294.336C242.069 294.336 242.853 294.479 243.5 294.764C244.148 295.044 244.643 295.447 244.986 295.974C245.328 296.5 245.5 297.132 245.5 297.868V305H242.748V303.591H242.596C242.418 303.915 242.18 304.197 241.882 304.438C241.59 304.673 241.25 304.854 240.863 304.981C240.476 305.102 240.053 305.162 239.596 305.162ZM252.698 305.219C251.619 305.219 250.695 305.006 249.927 304.581C249.166 304.149 248.585 303.527 248.185 302.715C247.785 301.902 247.585 300.918 247.585 299.763V299.754C247.585 298.611 247.785 297.637 248.185 296.831C248.585 296.024 249.166 295.409 249.927 294.983C250.689 294.552 251.613 294.336 252.698 294.336C253.618 294.336 254.415 294.498 255.088 294.822C255.761 295.145 256.288 295.596 256.668 296.174C257.056 296.751 257.287 297.427 257.364 298.202V298.24H254.783L254.774 298.211C254.678 297.703 254.456 297.294 254.107 296.983C253.764 296.672 253.298 296.516 252.708 296.516C252.219 296.516 251.803 296.643 251.46 296.897C251.117 297.145 250.857 297.51 250.679 297.992C250.502 298.475 250.413 299.062 250.413 299.754V299.773C250.413 300.471 250.502 301.064 250.679 301.553C250.864 302.042 251.127 302.413 251.47 302.667C251.812 302.915 252.228 303.039 252.717 303.039C253.282 303.039 253.736 302.902 254.079 302.629C254.421 302.35 254.65 301.947 254.764 301.42L254.783 301.382L257.364 301.372L257.354 301.439C257.265 302.194 257.027 302.858 256.64 303.429C256.253 303.994 255.726 304.435 255.059 304.752C254.399 305.063 253.612 305.219 252.698 305.219ZM264.019 305.219C262.959 305.219 262.048 305 261.286 304.562C260.525 304.124 259.938 303.499 259.525 302.686C259.119 301.874 258.916 300.912 258.916 299.801V299.792C258.916 298.681 259.119 297.719 259.525 296.907C259.938 296.088 260.515 295.456 261.258 295.012C262.007 294.561 262.889 294.336 263.905 294.336C264.92 294.336 265.796 294.555 266.533 294.993C267.275 295.425 267.847 296.034 268.247 296.821C268.653 297.608 268.856 298.529 268.856 299.582V300.439H260.296V298.697H267.523L266.209 300.344V299.24C266.209 298.617 266.114 298.097 265.923 297.678C265.733 297.259 265.469 296.945 265.133 296.735C264.797 296.526 264.403 296.421 263.952 296.421C263.508 296.421 263.115 296.529 262.772 296.745C262.429 296.961 262.159 297.281 261.962 297.707C261.766 298.125 261.667 298.636 261.667 299.24V300.354C261.667 300.938 261.762 301.439 261.953 301.858C262.15 302.271 262.429 302.588 262.791 302.81C263.153 303.032 263.581 303.143 264.076 303.143C264.482 303.143 264.825 303.083 265.104 302.962C265.39 302.842 265.619 302.699 265.79 302.534C265.968 302.369 266.088 302.217 266.152 302.077L266.18 302.02L268.77 302.01L268.742 302.115C268.666 302.451 268.516 302.801 268.294 303.162C268.078 303.524 267.78 303.861 267.399 304.172C267.025 304.483 266.558 304.737 266 304.933C265.441 305.124 264.781 305.219 264.019 305.219ZM280.129 305.067C278.879 305.067 277.974 304.841 277.416 304.391C276.857 303.94 276.578 303.2 276.578 302.172V296.659H274.997V294.564H276.578V292.06H279.387V294.564H281.51V296.659H279.387V301.582C279.387 302.052 279.495 302.394 279.71 302.61C279.926 302.826 280.266 302.934 280.729 302.934C280.894 302.934 281.034 302.931 281.148 302.924C281.262 302.912 281.383 302.899 281.51 302.886V304.952C281.339 304.984 281.132 305.01 280.891 305.029C280.656 305.054 280.402 305.067 280.129 305.067ZM288.27 305.219C287.204 305.219 286.283 305.003 285.509 304.572C284.741 304.134 284.151 303.511 283.738 302.705C283.325 301.893 283.119 300.918 283.119 299.782V299.763C283.119 298.646 283.329 297.681 283.748 296.869C284.167 296.056 284.76 295.431 285.528 294.993C286.296 294.555 287.21 294.336 288.27 294.336C289.33 294.336 290.244 294.555 291.012 294.993C291.781 295.431 292.374 296.056 292.793 296.869C293.212 297.675 293.421 298.64 293.421 299.763V299.782C293.421 300.918 293.215 301.893 292.802 302.705C292.39 303.511 291.796 304.134 291.022 304.572C290.254 305.003 289.337 305.219 288.27 305.219ZM288.27 303.039C288.759 303.039 289.175 302.912 289.518 302.658C289.86 302.397 290.121 302.026 290.298 301.544C290.482 301.055 290.574 300.471 290.574 299.792V299.773C290.574 299.087 290.482 298.503 290.298 298.021C290.114 297.538 289.851 297.167 289.508 296.907C289.165 296.646 288.753 296.516 288.27 296.516C287.788 296.516 287.372 296.646 287.023 296.907C286.68 297.167 286.417 297.538 286.233 298.021C286.049 298.503 285.957 299.087 285.957 299.773V299.792C285.957 300.477 286.049 301.061 286.233 301.544C286.417 302.026 286.68 302.397 287.023 302.658C287.366 302.912 287.781 303.039 288.27 303.039ZM300.658 305V291.26H309.656V293.631H303.533V297.316H309.122V299.592H303.533V305H300.658ZM316.463 305.219C315.403 305.219 314.492 305 313.731 304.562C312.969 304.124 312.382 303.499 311.969 302.686C311.563 301.874 311.36 300.912 311.36 299.801V299.792C311.36 298.681 311.563 297.719 311.969 296.907C312.382 296.088 312.959 295.456 313.702 295.012C314.451 294.561 315.333 294.336 316.349 294.336C317.365 294.336 318.241 294.555 318.977 294.993C319.72 295.425 320.291 296.034 320.691 296.821C321.097 297.608 321.3 298.529 321.3 299.582V300.439H312.74V298.697H319.967L318.653 300.344V299.24C318.653 298.617 318.558 298.097 318.368 297.678C318.177 297.259 317.914 296.945 317.577 296.735C317.241 296.526 316.847 296.421 316.397 296.421C315.952 296.421 315.559 296.529 315.216 296.745C314.873 296.961 314.604 297.281 314.407 297.707C314.21 298.125 314.112 298.636 314.112 299.24V300.354C314.112 300.938 314.207 301.439 314.397 301.858C314.594 302.271 314.873 302.588 315.235 302.81C315.597 303.032 316.025 303.143 316.521 303.143C316.927 303.143 317.27 303.083 317.549 302.962C317.834 302.842 318.063 302.699 318.234 302.534C318.412 302.369 318.533 302.217 318.596 302.077L318.625 302.02L321.215 302.01L321.186 302.115C321.11 302.451 320.961 302.801 320.739 303.162C320.523 303.524 320.224 303.861 319.844 304.172C319.469 304.483 319.002 304.737 318.444 304.933C317.885 305.124 317.225 305.219 316.463 305.219ZM328.042 305.219C326.981 305.219 326.071 305 325.309 304.562C324.547 304.124 323.96 303.499 323.547 302.686C323.141 301.874 322.938 300.912 322.938 299.801V299.792C322.938 298.681 323.141 297.719 323.547 296.907C323.96 296.088 324.538 295.456 325.28 295.012C326.029 294.561 326.912 294.336 327.927 294.336C328.943 294.336 329.819 294.555 330.555 294.993C331.298 295.425 331.869 296.034 332.269 296.821C332.675 297.608 332.878 298.529 332.878 299.582V300.439H324.319V298.697H331.545L330.231 300.344V299.24C330.231 298.617 330.136 298.097 329.946 297.678C329.755 297.259 329.492 296.945 329.156 296.735C328.819 296.526 328.426 296.421 327.975 296.421C327.531 296.421 327.137 296.529 326.794 296.745C326.451 296.961 326.182 297.281 325.985 297.707C325.788 298.125 325.69 298.636 325.69 299.24V300.354C325.69 300.938 325.785 301.439 325.975 301.858C326.172 302.271 326.451 302.588 326.813 302.81C327.175 303.032 327.604 303.143 328.099 303.143C328.505 303.143 328.848 303.083 329.127 302.962C329.413 302.842 329.641 302.699 329.812 302.534C329.99 302.369 330.111 302.217 330.174 302.077L330.203 302.02L332.793 302.01L332.764 302.115C332.688 302.451 332.539 302.801 332.317 303.162C332.101 303.524 331.802 303.861 331.422 304.172C331.047 304.483 330.581 304.737 330.022 304.933C329.463 305.124 328.803 305.219 328.042 305.219ZM335.097 305V290.632H337.877V305H335.097ZM351.731 305.333C350.373 305.333 349.198 305.041 348.208 304.457C347.218 303.873 346.453 303.042 345.913 301.963C345.38 300.884 345.114 299.608 345.114 298.135V298.116C345.114 296.637 345.383 295.361 345.923 294.288C346.469 293.216 347.237 292.387 348.227 291.803C349.217 291.219 350.385 290.927 351.731 290.927C353.083 290.927 354.254 291.219 355.244 291.803C356.235 292.387 356.996 293.219 357.53 294.298C358.069 295.371 358.339 296.643 358.339 298.116V298.135C358.339 299.608 358.069 300.884 357.53 301.963C356.996 303.042 356.235 303.873 355.244 304.457C354.26 305.041 353.089 305.333 351.731 305.333ZM351.731 302.896C352.48 302.896 353.127 302.702 353.673 302.315C354.226 301.921 354.651 301.369 354.949 300.658C355.254 299.941 355.406 299.1 355.406 298.135V298.116C355.406 297.145 355.254 296.304 354.949 295.593C354.651 294.882 354.226 294.333 353.673 293.946C353.121 293.558 352.474 293.365 351.731 293.365C350.988 293.365 350.341 293.558 349.789 293.946C349.236 294.333 348.808 294.882 348.503 295.593C348.198 296.304 348.046 297.145 348.046 298.116V298.135C348.046 299.1 348.195 299.941 348.494 300.658C348.798 301.369 349.224 301.921 349.77 302.315C350.322 302.702 350.976 302.896 351.731 302.896ZM364.118 305.219C363.344 305.219 362.693 305.067 362.167 304.762C361.64 304.457 361.24 304.013 360.967 303.429C360.7 302.839 360.567 302.131 360.567 301.306V294.564H363.347V300.687C363.347 301.417 363.496 301.972 363.795 302.353C364.093 302.728 364.569 302.915 365.223 302.915C365.559 302.915 365.858 302.861 366.118 302.753C366.385 302.639 366.607 302.48 366.784 302.277C366.962 302.074 367.095 301.829 367.184 301.544C367.28 301.258 367.327 300.941 367.327 300.592V294.564H370.107V305H367.327V303.372H367.175C367.016 303.753 366.791 304.083 366.499 304.362C366.213 304.641 365.87 304.854 365.47 305C365.071 305.146 364.62 305.219 364.118 305.219ZM377.039 305.067C375.789 305.067 374.884 304.841 374.325 304.391C373.767 303.94 373.488 303.2 373.488 302.172V296.659H371.907V294.564H373.488V292.06H376.296V294.564H378.42V296.659H376.296V301.582C376.296 302.052 376.404 302.394 376.62 302.61C376.836 302.826 377.176 302.934 377.639 302.934C377.804 302.934 377.944 302.931 378.058 302.924C378.172 302.912 378.293 302.899 378.42 302.886V304.952C378.248 304.984 378.042 305.01 377.801 305.029C377.566 305.054 377.312 305.067 377.039 305.067ZM385.704 305V291.26H388.579V302.629H394.673V305H385.704ZM401.119 305.219C400.052 305.219 399.132 305.003 398.358 304.572C397.59 304.134 396.999 303.511 396.587 302.705C396.174 301.893 395.968 300.918 395.968 299.782V299.763C395.968 298.646 396.177 297.681 396.596 296.869C397.015 296.056 397.609 295.431 398.377 294.993C399.145 294.555 400.059 294.336 401.119 294.336C402.179 294.336 403.093 294.555 403.861 294.993C404.629 295.431 405.223 296.056 405.642 296.869C406.061 297.675 406.27 298.64 406.27 299.763V299.782C406.27 300.918 406.064 301.893 405.651 302.705C405.239 303.511 404.645 304.134 403.871 304.572C403.103 305.003 402.185 305.219 401.119 305.219ZM401.119 303.039C401.608 303.039 402.023 302.912 402.366 302.658C402.709 302.397 402.969 302.026 403.147 301.544C403.331 301.055 403.423 300.471 403.423 299.792V299.773C403.423 299.087 403.331 298.503 403.147 298.021C402.963 297.538 402.699 297.167 402.357 296.907C402.014 296.646 401.601 296.516 401.119 296.516C400.636 296.516 400.221 296.646 399.872 296.907C399.529 297.167 399.265 297.538 399.081 298.021C398.897 298.503 398.805 299.087 398.805 299.773V299.792C398.805 300.477 398.897 301.061 399.081 301.544C399.265 302.026 399.529 302.397 399.872 302.658C400.214 302.912 400.63 303.039 401.119 303.039ZM411.859 305.219C411.085 305.219 410.434 305.067 409.907 304.762C409.38 304.457 408.98 304.013 408.708 303.429C408.441 302.839 408.308 302.131 408.308 301.306V294.564H411.088V300.687C411.088 301.417 411.237 301.972 411.535 302.353C411.834 302.728 412.31 302.915 412.964 302.915C413.3 302.915 413.598 302.861 413.859 302.753C414.125 302.639 414.347 302.48 414.525 302.277C414.703 302.074 414.836 301.829 414.925 301.544C415.02 301.258 415.068 300.941 415.068 300.592V294.564H417.848V305H415.068V303.372H414.916C414.757 303.753 414.531 304.083 414.24 304.362C413.954 304.641 413.611 304.854 413.211 305C412.811 305.146 412.361 305.219 411.859 305.219ZM424.218 305.171C423.348 305.171 422.596 304.956 421.961 304.524C421.327 304.092 420.838 303.473 420.495 302.667C420.152 301.861 419.981 300.903 419.981 299.792V299.773C419.981 298.649 420.149 297.688 420.486 296.888C420.828 296.082 421.314 295.466 421.942 295.041C422.577 294.609 423.336 294.393 424.218 294.393C424.694 294.393 425.135 294.469 425.542 294.622C425.954 294.768 426.316 294.98 426.627 295.26C426.938 295.532 427.179 295.863 427.351 296.25H427.512V290.632H430.293V305H427.512V303.362H427.351C427.173 303.737 426.932 304.061 426.627 304.333C426.329 304.6 425.976 304.806 425.57 304.952C425.164 305.098 424.713 305.171 424.218 305.171ZM425.161 302.867C425.649 302.867 426.068 302.743 426.417 302.496C426.773 302.248 427.046 301.896 427.236 301.439C427.433 300.976 427.531 300.427 427.531 299.792V299.773C427.531 299.138 427.433 298.592 427.236 298.135C427.046 297.672 426.773 297.316 426.417 297.069C426.062 296.821 425.643 296.697 425.161 296.697C424.678 296.697 424.259 296.821 423.904 297.069C423.555 297.316 423.285 297.668 423.094 298.125C422.904 298.583 422.809 299.132 422.809 299.773V299.792C422.809 300.427 422.904 300.976 423.094 301.439C423.285 301.896 423.555 302.248 423.904 302.496C424.259 302.743 424.678 302.867 425.161 302.867ZM434.911 305.229C434.435 305.229 434.038 305.073 433.72 304.762C433.409 304.445 433.254 304.054 433.254 303.591C433.254 303.127 433.409 302.74 433.72 302.429C434.038 302.112 434.435 301.953 434.911 301.953C435.393 301.953 435.79 302.112 436.101 302.429C436.412 302.74 436.567 303.127 436.567 303.591C436.567 304.054 436.412 304.445 436.101 304.762C435.79 305.073 435.393 305.229 434.911 305.229Z" fill="#C77DFF"/>

</svg>
